<svg width="24" height="24" viewBox="0 0 24 24" fill="none" xmlns="http://www.w3.org/2000/svg">
<path d="M12.3001 3C12.0689 3 11.8471 3.09186 11.6836 3.25537C11.5201 3.41887 11.4282 3.64064 11.4282 3.87188C11.4282 4.10311 11.5201 4.32488 11.6836 4.48838C11.8471 4.65189 12.0689 4.74375 12.3001 4.74375C14.3041 4.74375 16.2261 5.53985 17.6432 6.95693C19.0602 8.374 19.8564 10.296 19.8564 12.3C19.8564 14.304 19.0602 16.226 17.6432 17.6431C16.2261 19.0602 14.3041 19.8563 12.3001 19.8563C12.0689 19.8563 11.8471 19.9481 11.6836 20.1116C11.5201 20.2751 11.4282 20.4969 11.4282 20.7281C11.4282 20.9594 11.5201 21.1811 11.6836 21.3446C11.8471 21.5082 12.0689 21.6 12.3001 21.6C14.7666 21.6 17.1321 20.6202 18.8762 18.8761C20.6203 17.132 21.6001 14.7665 21.6001 12.3C21.6001 9.83349 20.6203 7.468 18.8762 5.72391C17.1321 3.97982 14.7666 3 12.3001 3Z" fill="#7B828A"/>
<path d="M3.87188 11.4282C3.64064 11.4282 3.41887 11.52 3.25537 11.6835C3.09186 11.847 3 12.0688 3 12.3C3 12.5313 3.09186 12.753 3.25537 12.9165C3.41887 13.08 3.64064 13.1719 3.87188 13.1719H11.649L9.6495 15.1714C9.56384 15.2512 9.49514 15.3475 9.44748 15.4544C9.39983 15.5614 9.37421 15.6768 9.37214 15.7939C9.37008 15.911 9.39161 16.0273 9.43546 16.1358C9.47931 16.2444 9.54458 16.343 9.62737 16.4258C9.71016 16.5086 9.80878 16.5739 9.91735 16.6177C10.0259 16.6616 10.1422 16.6831 10.2593 16.681C10.3763 16.679 10.4918 16.6533 10.5987 16.6057C10.7057 16.558 10.8019 16.4893 10.8818 16.4037L14.3693 12.9162C14.5325 12.7527 14.6242 12.5311 14.6242 12.3C14.6242 12.069 14.5325 11.8474 14.3693 11.6839L10.8818 8.1964C10.7165 8.0424 10.4979 7.95855 10.272 7.96254C10.0461 7.96652 9.83061 8.05803 9.67087 8.21777C9.51113 8.37751 9.41962 8.59302 9.41564 8.8189C9.41165 9.04477 9.4955 9.26338 9.6495 9.42866L11.649 11.4282H3.87188Z" fill="#7B828A"/>
</svg>
