<svg width="24" height="24" viewBox="0 0 24 24" fill="none" xmlns="http://www.w3.org/2000/svg">
<rect width="24" height="24" fill="#1E1E1E"/>
<path d="M-84 -22C-84 -30.8366 -76.8366 -38 -68 -38H339C347.837 -38 355 -30.8366 355 -22V86C355 94.8366 347.837 102 339 102H-68C-76.8366 102 -84 94.8366 -84 86V-22Z" fill="#363636"/>
<g filter="url(#filter0_d_2_5)">
<g clip-path="url(#clip0_2_5)">
<g clip-path="url(#clip1_2_5)">
<rect width="390" height="58" transform="translate(-61 -12)" fill="white"/>
<path d="M4 12C4 12.2652 4.10536 12.5196 4.29289 12.7071C4.48043 12.8946 4.73478 13 5 13C5.26522 13 5.51957 12.8946 5.70711 12.7071C5.89464 12.5196 6 12.2652 6 12C6 11.7348 5.89464 11.4804 5.70711 11.2929C5.51957 11.1054 5.26522 11 5 11C4.73478 11 4.48043 11.1054 4.29289 11.2929C4.10536 11.4804 4 11.7348 4 12ZM11 12C11 12.2652 11.1054 12.5196 11.2929 12.7071C11.4804 12.8946 11.7348 13 12 13C12.2652 13 12.5196 12.8946 12.7071 12.7071C12.8946 12.5196 13 12.2652 13 12C13 11.7348 12.8946 11.4804 12.7071 11.2929C12.5196 11.1054 12.2652 11 12 11C11.7348 11 11.4804 11.1054 11.2929 11.2929C11.1054 11.4804 11 11.7348 11 12ZM18 12C18 12.2652 18.1054 12.5196 18.2929 12.7071C18.4804 12.8946 18.7348 13 19 13C19.2652 13 19.5196 12.8946 19.7071 12.7071C19.8946 12.5196 20 12.2652 20 12C20 11.7348 19.8946 11.4804 19.7071 11.2929C19.5196 11.1054 19.2652 11 19 11C18.7348 11 18.4804 11.1054 18.2929 11.2929C18.1054 11.4804 18 11.7348 18 12Z" stroke="#7E44F8" stroke-width="2" stroke-linecap="round" stroke-linejoin="round"/>
</g>
</g>
</g>
<path d="M-68 -37H339V-39H-68V-37ZM354 -22V86H356V-22H354ZM339 101H-68V103H339V101ZM-83 86V-22H-85V86H-83ZM-68 101C-76.2843 101 -83 94.2843 -83 86H-85C-85 95.3888 -77.3888 103 -68 103V101ZM354 86C354 94.2843 347.284 101 339 101V103C348.389 103 356 95.3888 356 86H354ZM339 -37C347.284 -37 354 -30.2843 354 -22H356C356 -31.3888 348.389 -39 339 -39V-37ZM-68 -39C-77.3888 -39 -85 -31.3888 -85 -22H-83C-83 -30.2843 -76.2843 -37 -68 -37V-39Z" fill="white" fill-opacity="0.1"/>
<defs>
<filter id="filter0_d_2_5" x="-73" y="-26" width="414" height="112" filterUnits="userSpaceOnUse" color-interpolation-filters="sRGB">
<feFlood flood-opacity="0" result="BackgroundImageFix"/>
<feColorMatrix in="SourceAlpha" type="matrix" values="0 0 0 0 0 0 0 0 0 0 0 0 0 0 0 0 0 0 127 0" result="hardAlpha"/>
<feOffset dy="-2"/>
<feGaussianBlur stdDeviation="6"/>
<feComposite in2="hardAlpha" operator="out"/>
<feColorMatrix type="matrix" values="0 0 0 0 0 0 0 0 0 0 0 0 0 0 0 0 0 0 0.08 0"/>
<feBlend mode="normal" in2="BackgroundImageFix" result="effect1_dropShadow_2_5"/>
<feBlend mode="normal" in="SourceGraphic" in2="effect1_dropShadow_2_5" result="shape"/>
</filter>
<clipPath id="clip0_2_5">
<path d="M-61 -9.53674e-07C-61 -6.62742 -55.6274 -12 -49 -12H317C323.627 -12 329 -6.62742 329 0V76H-61V-9.53674e-07Z" fill="white"/>
</clipPath>
<clipPath id="clip1_2_5">
<rect width="390" height="58" fill="white" transform="translate(-61 -12)"/>
</clipPath>
</defs>
</svg>
