<svg width="19" height="19" viewBox="0 0 19 19" fill="none" xmlns="http://www.w3.org/2000/svg">
<path d="M9.3001 0C9.06886 4.87293e-09 8.8471 0.0918579 8.68359 0.255366C8.52008 0.418875 8.42822 0.64064 8.42822 0.871875C8.42822 1.10311 8.52008 1.32488 8.68359 1.48838C8.8471 1.65189 9.06886 1.74375 9.3001 1.74375C11.3041 1.74375 13.2261 2.53985 14.6432 3.95693C16.0602 5.374 16.8564 7.29596 16.8564 9.3C16.8564 11.304 16.0602 13.226 14.6432 14.6431C13.2261 16.0602 11.3041 16.8563 9.3001 16.8563C9.06886 16.8563 8.8471 16.9481 8.68359 17.1116C8.52008 17.2751 8.42822 17.4969 8.42822 17.7281C8.42822 17.9594 8.52008 18.1811 8.68359 18.3446C8.8471 18.5082 9.06886 18.6 9.3001 18.6C11.7666 18.6 14.1321 17.6202 15.8762 15.8761C17.6203 14.132 18.6001 11.7665 18.6001 9.3C18.6001 6.83349 17.6203 4.468 15.8762 2.72391C14.1321 0.979819 11.7666 0 9.3001 0Z" fill="#7B828A"/>
<path d="M0.871875 8.42816C0.64064 8.42816 0.418875 8.52001 0.255366 8.68352C0.0918579 8.84703 0 9.0688 0 9.30003C0 9.53127 0.0918579 9.75303 0.255366 9.91654C0.418875 10.08 0.64064 10.1719 0.871875 10.1719H8.649L6.6495 12.1714C6.56384 12.2512 6.49514 12.3475 6.44748 12.4544C6.39983 12.5614 6.37421 12.6768 6.37214 12.7939C6.37008 12.911 6.39161 13.0273 6.43546 13.1358C6.47931 13.2444 6.54458 13.343 6.62737 13.4258C6.71016 13.5086 6.80878 13.5739 6.91735 13.6177C7.02591 13.6616 7.14219 13.6831 7.25926 13.681C7.37633 13.679 7.49178 13.6533 7.59873 13.6057C7.70568 13.558 7.80193 13.4893 7.88175 13.4037L11.3693 9.91616C11.5325 9.75268 11.6242 9.53108 11.6242 9.30003C11.6242 9.06898 11.5325 8.84738 11.3693 8.68391L7.88175 5.1964C7.71648 5.0424 7.49787 4.95855 7.272 4.96254C7.04612 4.96652 6.83061 5.05803 6.67087 5.21777C6.51113 5.37751 6.41962 5.59302 6.41564 5.8189C6.41165 6.04477 6.4955 6.26338 6.6495 6.42866L8.649 8.42816H0.871875Z" fill="#7B828A"/>
</svg>
